<svg xmlns="http://www.w3.org/2000/svg" xmlns:xlink="http://www.w3.org/1999/xlink" viewBox="0 0 40 41"><g transform="translate(0 0.5)"><path d="M 40 40 L 0 40 L 0 0 L 40 0 Z" fill="transparent"></path><path d="M 31.783 6.548 L 15.284 6.548 C 14.847 6.556 14.431 6.735 14.124 7.047 C 13.818 7.358 13.647 7.778 13.647 8.215 C 13.647 8.652 13.818 9.071 14.124 9.383 C 14.431 9.695 14.847 9.874 15.284 9.881 L 27.76 9.881 L 7.035 30.607 C 6.722 30.919 6.547 31.343 6.547 31.785 C 6.547 32.227 6.722 32.651 7.035 32.964 C 7.347 33.276 7.771 33.452 8.213 33.452 C 8.655 33.452 9.079 33.276 9.392 32.964 L 30.117 12.238 L 30.117 24.714 C 30.113 24.935 30.153 25.155 30.235 25.361 C 30.317 25.566 30.44 25.753 30.595 25.911 C 30.75 26.069 30.935 26.195 31.139 26.28 C 31.343 26.366 31.562 26.41 31.783 26.41 C 32.005 26.41 32.224 26.366 32.428 26.28 C 32.632 26.195 32.817 26.069 32.972 25.911 C 33.127 25.753 33.249 25.566 33.331 25.361 C 33.413 25.155 33.454 24.935 33.45 24.714 L 33.45 8.215 C 33.45 7.773 33.274 7.349 32.962 7.037 C 32.649 6.724 32.225 6.549 31.783 6.548 Z" fill="rgb(194,255,10)"></path></g></svg>